<!-- Generator: Adobe Illustrator 22.1.0, SVG Export Plug-In  -->
<svg version="1.1"
	 xmlns="http://www.w3.org/2000/svg" xmlns:xlink="http://www.w3.org/1999/xlink" xmlns:a="http://ns.adobe.com/AdobeSVGViewerExtensions/3.0/"
	 x="0px" y="0px" width="327.381px" height="39.978px" viewBox="0 0 327.381 39.978"
	 style="enable-background:new 0 0 327.381 39.978;" xml:space="preserve">
<style type="text/css">
	.st0{fill:#FFFFFF;}
</style>
<defs>
</defs>
<g>
	<path class="st0" d="M0.468,29.25l2.844-4.319c1.476,0.936,3.959,1.908,7.091,1.908c3.06,0,4.067-0.972,4.067-2.735
		c0-2.34-1.224-2.7-5.579-4.068c-4.896-1.512-7.235-3.491-7.235-7.847c0-5.22,3.312-7.847,9.215-7.847
		c3.708,0,6.047,0.648,8.171,1.656l-2.448,4.823c-1.26-0.612-3.06-1.188-5.579-1.188c-2.7,0-3.852,0.684-3.852,2.375
		c0,1.836,1.044,2.268,4.248,3.312c6.371,2.052,8.531,3.456,8.531,8.675c0,4.716-2.879,7.667-9.395,7.667
		C6.119,31.662,2.879,30.834,0.468,29.25z"/>
	<path class="st0" d="M21.744,25.183c0-5.723,3.167-7.343,10.475-7.343h0.72c-0.108-1.691-0.684-2.412-2.7-2.412
		c-2.304,0-3.996,0.504-5.183,1.08l-2.196-4.392c1.8-0.936,4.319-1.62,7.991-1.62c5.615,0,7.343,1.908,7.343,6.947v7.595
		c0,1.26,0.108,1.584,1.404,1.584v4.715c-0.576,0.072-1.116,0.072-1.62,0.072c-2.592,0-3.563-0.252-4.176-1.691
		c-1.08,1.296-2.7,1.872-5.615,1.872C22.859,31.59,21.744,28.854,21.744,25.183z M23.039,7.221c1.404-2.735,2.988-3.959,5.255-3.959
		c1.908,0,3.204,1.548,4.248,1.548c0.756,0,1.368-0.504,2.268-1.728l3.456,2.016c-1.404,2.736-2.951,3.996-5.219,3.996
		c-1.944,0-3.239-1.512-4.248-1.512c-0.756,0-1.404,0.432-2.268,1.656L23.039,7.221z M32.938,23.563v-1.872h-0.684
		c-4.031,0-5.327,0.54-5.327,2.88c0,1.8,0.648,2.556,2.52,2.556C31.57,27.126,32.938,26.371,32.938,23.563z"/>
	<path class="st0" d="M41.472,21.079c0-6.371,1.764-10.511,8.999-10.511c7.271,0,8.963,4.211,8.963,10.511
		c0,6.551-1.691,10.583-8.963,10.583C43.307,31.662,41.472,27.522,41.472,21.079z M53.962,21.259c0-3.563-0.36-5.615-3.492-5.615
		c-3.131,0-3.491,2.052-3.491,5.615c0,3.527,0.36,5.651,3.491,5.651C53.602,26.911,53.962,24.787,53.962,21.259z"/>
	<path class="st0" d="M67.428,26.298h2.556c2.304,0,2.987-0.792,2.987-2.627V4.665h5.651v19.366c0,5.795-3.167,7.307-7.703,7.307
		h-3.491V26.298z"/>
	<path class="st0" d="M81.503,21.079c0-6.371,1.764-10.511,8.999-10.511c7.271,0,8.963,4.211,8.963,10.511
		c0,6.551-1.691,10.583-8.963,10.583C83.338,31.662,81.503,27.522,81.503,21.079z M93.993,21.259c0-3.563-0.36-5.615-3.492-5.615
		c-3.131,0-3.491,2.052-3.491,5.615c0,3.527,0.36,5.651,3.491,5.651C93.633,26.911,93.993,24.787,93.993,21.259z"/>
	<path class="st0" d="M101.051,25.183c0-5.723,3.167-7.343,10.475-7.343h0.72c-0.108-1.691-0.684-2.412-2.7-2.412
		c-2.304,0-3.996,0.504-5.183,1.08l-2.196-4.392c1.8-0.936,4.319-1.62,7.991-1.62c5.615,0,7.343,1.908,7.343,6.947v7.595
		c0,1.26,0.108,1.584,1.404,1.584v4.715c-0.576,0.072-1.116,0.072-1.62,0.072c-2.592,0-3.563-0.252-4.176-1.691
		c-1.08,1.296-2.7,1.872-5.615,1.872C102.167,31.59,101.051,28.854,101.051,25.183z M102.347,7.221
		c1.404-2.735,2.988-3.959,5.255-3.959c1.908,0,3.204,1.548,4.248,1.548c0.756,0,1.368-0.504,2.268-1.728l3.456,2.016
		c-1.404,2.736-2.951,3.996-5.219,3.996c-1.944,0-3.239-1.512-4.248-1.512c-0.756,0-1.404,0.432-2.268,1.656L102.347,7.221z
		 M112.246,23.563v-1.872h-0.684c-4.031,0-5.327,0.54-5.327,2.88c0,1.8,0.648,2.556,2.52,2.556
		C110.878,27.126,112.246,26.371,112.246,23.563z"/>
	<path class="st0" d="M120.779,21.079c0-6.371,1.764-10.511,8.999-10.511c7.271,0,8.963,4.211,8.963,10.511
		c0,6.551-1.691,10.583-8.963,10.583C122.615,31.662,120.779,27.522,120.779,21.079z M133.27,21.259c0-3.563-0.36-5.615-3.492-5.615
		c-3.131,0-3.491,2.052-3.491,5.615c0,3.527,0.36,5.651,3.491,5.651C132.91,26.911,133.27,24.787,133.27,21.259z"/>
	<path class="st0" d="M147.887,4.665h8.315c8.459,0,11.734,3.132,11.734,13.318c0,10.403-3.204,13.354-11.734,13.354h-8.315V4.665z
		 M156.706,26.442c3.923,0,5.507-1.583,5.507-8.423c0-6.803-1.548-8.207-5.651-8.207h-3.023v16.63H156.706z"/>
	<path class="st0" d="M169.847,21.079c0-6.515,1.908-10.511,8.819-10.511c8.063,0,7.811,5.436,7.703,12.995h-11.267
		c0.216,2.412,1.008,3.383,3.708,3.383s4.067-0.576,5.363-1.188l2.052,4.139c-1.944,1.044-4.284,1.692-7.703,1.692
		C171.323,31.59,169.847,27.702,169.847,21.079z M175.066,19.352h6.515c-0.072-2.7-0.252-4.032-3.06-4.032
		C175.858,15.32,175.21,16.616,175.066,19.352z"/>
	<path class="st0" d="M194.902,31.41c-3.744,0-5.58-1.188-5.58-5.867V3.657h5.436v21.129c0,1.548,0.144,1.836,2.124,1.836v4.715
		C196.666,31.374,196.054,31.41,194.902,31.41z"/>
	<path class="st0" d="M215.277,22.411h-3.528v8.927h-5.543V4.665h10.187c6.407,0,8.783,3.096,8.783,8.495
		c0,3.923-1.26,7.055-4.463,8.459l4.284,9.719h-5.903L215.277,22.411z M216.249,17.479c2.448,0,3.419-1.08,3.419-3.923
		c0-2.88-0.972-3.923-3.419-3.923h-4.5v7.847H216.249z"/>
	<path class="st0" d="M226.979,21.079c0-6.515,1.908-10.511,8.819-10.511c8.063,0,7.811,5.436,7.703,12.995h-11.267
		c0.216,2.412,1.008,3.383,3.708,3.383s4.067-0.576,5.363-1.188l2.052,4.139c-1.944,1.044-4.284,1.692-7.703,1.692
		C228.454,31.59,226.979,27.702,226.979,21.079z M232.198,19.352h6.515c-0.072-2.7-0.252-4.032-3.06-4.032
		C232.99,15.32,232.342,16.616,232.198,19.352z"/>
	<path class="st0" d="M246.454,4.161h5.472v4.932h-5.472V4.161z M246.454,10.928h5.436v20.41h-5.436V10.928z"/>
	<path class="st0" d="M254.878,16.868h20.265v4.967h-20.265V16.868z"/>
	<path class="st0" d="M278.314,4.665h7.199l5.184,16.918l5.255-16.918h7.199v26.673h-5.507V14.312l-5.328,17.026h-3.635
		l-5.363-17.026v17.026h-5.003V4.665z"/>
	<path class="st0" d="M306.177,18.02c0-9.503,2.808-13.678,11.339-13.678c3.275,0,5.867,0.864,7.739,2.052l-2.987,4.679
		c-1.224-0.684-2.736-1.296-5.003-1.296c-3.492,0-5.436,1.332-5.436,8.387c0,6.767,1.296,8.711,5.219,8.711
		c3.42,0,4.032-1.764,4.032-5.867v-0.648h-5.184V15.5h10.547V20c0,8.603-1.908,11.662-9.899,11.662
		C308.301,31.662,306.177,26.479,306.177,18.02z"/>
</g>
</svg>