<!-- Generator: Adobe Illustrator 22.1.0, SVG Export Plug-In  -->
<svg version="1.1"
	 xmlns="http://www.w3.org/2000/svg" xmlns:xlink="http://www.w3.org/1999/xlink" xmlns:a="http://ns.adobe.com/AdobeSVGViewerExtensions/3.0/"
	 x="0px" y="0px" width="531.735px" height="265.766px" viewBox="0 0 531.735 265.766"
	 style="enable-background:new 0 0 531.735 265.766;" xml:space="preserve">
<style type="text/css">
	.st0{fill:#FFFFFF;}
	.st1{fill:#ED5A23;}
	.st2{font-family:'AntennaCond-Bold';}
	.st3{font-size:129px;}
	.st4{letter-spacing:-2;}
	.st5{font-size:60.2715px;}
	.st6{letter-spacing:-1;}
	.st7{font-size:83.3561px;}
</style>
<defs>
</defs>
<g>
	<g>
		<path class="st0" d="M3.483,140.57c0-26.058,5.418-49.018,39.603-49.018c34.184,0,39.602,22.96,39.602,49.018
			c0,25.929-5.418,48.891-39.602,48.891C8.901,189.461,3.483,166.499,3.483,140.57z M62.177,141.216
			c0-17.931-2.064-30.186-19.091-30.186c-17.028,0-19.092,12.255-19.092,30.186c0,18.06,2.064,30.314,19.092,30.314
			C60.113,171.53,62.177,159.275,62.177,141.216z"/>
		<path class="st0" d="M111.584,140.57c0-29.024,7.353-49.018,39.86-49.018c10.062,0,19.092,2.45,25.929,6.966l-10.836,16.769
			c-3.87-2.451-9.159-3.999-15.737-3.999c-13.287,0-18.705,6.321-18.705,29.799c0,23.09,5.16,30.186,18.834,30.186
			c6.837,0,11.48-1.419,16.898-4.902l9.933,15.608c-7.61,4.773-15.093,7.482-27.863,7.482
			C120.098,189.461,111.584,170.498,111.584,140.57z"/>
		<path class="st0" d="M181.375,140.57c0-26.058,5.417-49.018,39.602-49.018s39.603,22.96,39.603,49.018
			c0,25.929-5.418,48.891-39.603,48.891S181.375,166.499,181.375,140.57z M240.068,141.216c0-17.931-2.063-30.186-19.092-30.186
			c-17.027,0-19.092,12.255-19.092,30.186c0,18.06,2.064,30.314,19.092,30.314C238.004,171.53,240.068,159.275,240.068,141.216z"/>
		<path class="st0" d="M304.052,156.309h-12.642V188.3h-19.866V92.713h36.507c22.962,0,31.476,11.094,31.476,30.443
			c0,14.061-4.515,25.283-15.996,30.314l15.351,34.829h-21.155L304.052,156.309z M307.536,138.636
			c8.771,0,12.255-3.87,12.255-14.061c0-10.32-3.483-14.062-12.255-14.062h-16.125v28.122H307.536z"/>
		<path class="st0" d="M352.04,92.713h36.765c22.962,0,31.476,11.609,31.476,31.087c0,19.221-8.385,33.152-31.863,33.152h-16.512
			V188.3H352.04V92.713z M388.16,139.409c8.771,0,12.384-4.128,12.384-14.447c0-10.449-3.612-14.448-12.384-14.448h-16.254v28.896
			H388.16z"/>
		<path class="st0" d="M427.117,140.57c0-26.058,5.417-49.018,39.602-49.018s39.603,22.96,39.603,49.018
			c0,25.929-5.418,48.891-39.603,48.891S427.117,166.499,427.117,140.57z M485.811,141.216c0-17.931-2.063-30.186-19.092-30.186
			c-17.027,0-19.092,12.255-19.092,30.186c0,18.06,2.064,30.314,19.092,30.314C483.747,171.53,485.811,159.275,485.811,141.216z"/>
		<path class="st0" d="M1.627,228.999c0-13.562,3.436-22.903,18.624-22.903c4.701,0,8.92,1.146,12.115,3.255l-5.063,7.835
			c-1.808-1.145-4.279-1.868-7.353-1.868c-6.208,0-8.74,2.953-8.74,13.923c0,10.789,2.411,14.104,8.8,14.104
			c3.194,0,5.364-0.663,7.896-2.29l4.641,7.293c-3.556,2.229-7.052,3.495-13.019,3.495C5.605,251.842,1.627,242.982,1.627,228.999z"
			/>
		<path class="st0" d="M34.234,228.999c0-12.175,2.531-22.903,18.503-22.903s18.503,10.729,18.503,22.903
			c0,12.115-2.531,22.843-18.503,22.843S34.234,241.114,34.234,228.999z M61.658,229.301c0-8.378-0.964-14.104-8.92-14.104
			s-8.92,5.727-8.92,14.104c0,8.438,0.964,14.164,8.92,14.164S61.658,237.738,61.658,229.301z"/>
		<path class="st0" d="M76.364,206.638h12.055l8.679,28.328l8.8-28.328h12.054V251.3h-9.222v-28.509L99.81,251.3h-6.088
			l-8.98-28.509V251.3h-8.378V206.638z"/>
		<path class="st0" d="M123.014,228.999c0-12.175,2.531-22.903,18.503-22.903c15.973,0,18.504,10.729,18.504,22.903
			c0,12.115-2.531,22.843-18.504,22.843C125.545,251.842,123.014,241.114,123.014,228.999z M150.437,229.301
			c0-8.378-0.964-14.104-8.92-14.104s-8.92,5.727-8.92,14.104c0,8.438,0.964,14.164,8.92,14.164S150.437,237.738,150.437,229.301z"
			/>
		<path class="st0" d="M184.551,215.257h-11.994v-8.619h33.571v8.619h-12.055V251.3h-9.522V215.257z"/>
		<path class="st0" d="M210.287,206.638h27.544v8.619h-18.322v8.921h17.539v8.559h-17.539v10.125h18.383v8.438h-27.604V206.638z"/>
		<path class="st0" d="M259.046,236.353h-5.907V251.3h-9.281v-44.662h17.057c10.729,0,14.706,5.184,14.706,14.225
			c0,6.569-2.109,11.813-7.474,14.164l7.173,16.273h-9.885L259.046,236.353z M260.673,228.095c4.099,0,5.727-1.808,5.727-6.569
			c0-4.822-1.628-6.569-5.727-6.569h-7.534v13.139H260.673z"/>
		<path class="st0" d="M296.655,236.353h-5.907V251.3h-9.281v-44.662h17.057c10.729,0,14.706,5.184,14.706,14.225
			c0,6.569-2.109,11.813-7.474,14.164l7.173,16.273h-9.885L296.655,236.353z M298.282,228.095c4.099,0,5.726-1.808,5.726-6.569
			c0-4.822-1.627-6.569-5.726-6.569h-7.534v13.139H298.282z"/>
		<path class="st0" d="M319.618,206.638h9.402V251.3h-9.402V206.638z"/>
		<path class="st0" d="M345.715,215.257h-11.994v-8.619h33.571v8.619h-12.055V251.3h-9.522V215.257z"/>
		<path class="st0" d="M368.557,228.999c0-12.175,2.532-22.903,18.504-22.903c15.973,0,18.504,10.729,18.504,22.903
			c0,12.115-2.531,22.843-18.504,22.843C371.089,251.842,368.557,241.114,368.557,228.999z M395.981,229.301
			c0-8.378-0.964-14.104-8.92-14.104s-8.92,5.727-8.92,14.104c0,8.438,0.964,14.164,8.92,14.164S395.981,237.738,395.981,229.301z
			 M388.085,193.318h10.065l-8.679,11.029h-7.775L388.085,193.318z"/>
		<path class="st0" d="M425.877,236.353h-5.907V251.3h-9.281v-44.662h17.057c10.729,0,14.706,5.184,14.706,14.225
			c0,6.569-2.109,11.813-7.474,14.164l7.173,16.273h-9.885L425.877,236.353z M427.504,228.095c4.099,0,5.727-1.808,5.727-6.569
			c0-4.822-1.628-6.569-5.727-6.569h-7.534v13.139H427.504z"/>
		<path class="st0" d="M448.839,206.638h9.402V251.3h-9.402V206.638z"/>
		<path class="st0" d="M463.906,228.999c0-12.175,2.532-22.903,18.504-22.903c15.973,0,18.504,10.729,18.504,22.903
			c0,12.115-2.531,22.843-18.504,22.843C466.438,251.842,463.906,241.114,463.906,228.999z M491.33,229.301
			c0-8.378-0.964-14.104-8.92-14.104s-8.92,5.727-8.92,14.104c0,8.438,0.964,14.164,8.92,14.164S491.33,237.738,491.33,229.301z"/>
	</g>
	<g>
		<g>
			<path class="st1" d="M2.251,41.719c0-16.838,3.501-31.676,25.591-31.676c22.09,0,25.591,14.838,25.591,31.676
				c0,16.755-3.501,31.593-25.591,31.593C5.752,73.312,2.251,58.474,2.251,41.719z M40.179,42.136
				c0-11.587-1.333-19.506-12.337-19.506s-12.337,7.919-12.337,19.506c0,11.67,1.333,19.589,12.337,19.589
				S40.179,53.806,40.179,42.136z"/>
			<path class="st1" d="M60.517,10.792h38.178v11.92H73.604V36.05h23.924v11.837H73.604v24.674H60.517V10.792z"/>
			<path class="st1" d="M106.529,10.792h13.004v61.769h-13.004V10.792z"/>
			<path class="st1" d="M127.368,41.719c0-18.756,4.751-31.676,25.758-31.676c6.502,0,12.337,1.584,16.755,4.501l-7.002,10.836
				c-2.501-1.583-5.918-2.584-10.17-2.584c-8.586,0-12.087,4.084-12.087,19.255c0,14.922,3.334,19.507,12.17,19.507
				c4.418,0,7.419-0.917,10.92-3.168l6.418,10.086c-4.918,3.085-9.753,4.835-18.005,4.835
				C132.87,73.312,127.368,61.058,127.368,41.719z"/>
			<path class="st1" d="M177.715,10.792h13.004v61.769h-13.004V10.792z"/>
			<path class="st1" d="M201.137,10.792h13.837l20.256,35.594V10.792h12.42v61.769h-12.004l-22.09-38.512v38.512h-12.42V10.792z"/>
			<path class="st1" d="M272.739,10.376h14.004L306,72.562h-13.421l-2.834-9.586h-20.423l-2.751,9.586h-13.087L272.739,10.376z
				 M286.577,51.472l-7.002-23.424l-7.169,23.424H286.577z"/>
			<path class="st1" d="M307.331,67.727l6.585-10.003c3.418,2.167,9.169,4.418,16.422,4.418c7.085,0,9.419-2.251,9.419-6.335
				c0-5.419-2.834-6.252-12.92-9.42c-11.337-3.501-16.755-8.086-16.755-18.172c0-12.087,7.669-18.172,21.34-18.172
				c8.586,0,14.004,1.5,18.922,3.834l-5.668,11.17c-2.917-1.417-7.085-2.75-12.92-2.75c-6.252,0-8.919,1.583-8.919,5.501
				c0,4.251,2.417,5.251,9.836,7.669c14.754,4.752,19.756,8.003,19.756,20.09c0,10.92-6.668,17.755-21.756,17.755
				C320.418,73.312,312.917,71.395,307.331,67.727z"/>
		</g>
	</g>
</g>
</svg>