<!-- Generator: Adobe Illustrator 22.1.0, SVG Export Plug-In  -->
<svg version="1.1"
	 xmlns="http://www.w3.org/2000/svg" xmlns:xlink="http://www.w3.org/1999/xlink" xmlns:a="http://ns.adobe.com/AdobeSVGViewerExtensions/3.0/"
	 x="0px" y="0px" width="492.897px" height="66.932px" viewBox="0 0 492.897 66.932"
	 style="enable-background:new 0 0 492.897 66.932;" xml:space="preserve">
<style type="text/css">
	.st0{fill:#ED5A23;}
	.st1{font-family:'AntennaCond-Bold';}
	.st2{font-size:60.2715px;}
</style>
<defs>
</defs>
<g>
	<g>
		<path class="st0" d="M7.534,16.122H1.386V7.804h15.249v44.662H7.534V16.122z"/>
		<path class="st0" d="M23.988,39.688c0-5.305,0.542-9.825,5.907-11.813c-3.978-1.869-4.641-5.425-4.641-9.644
			c0-5.666,2.471-10.97,14.646-10.97c12.296,0,14.646,5.304,14.646,10.97c0,4.219-0.784,7.956-4.701,9.644
			c5.726,2.049,6.087,6.509,6.087,11.813c0,6.871-1.748,13.319-16.033,13.319C25.736,53.008,23.988,46.56,23.988,39.688z
			 M46.65,38.423c0-4.099-1.205-6.69-6.75-6.69c-5.484,0-6.63,2.592-6.63,6.69c0,4.038,1.146,6.811,6.63,6.811
			C45.445,45.233,46.65,42.461,46.65,38.423z M45.625,20.1c0-3.315-1.326-5.062-5.726-5.062c-4.279,0-5.726,1.747-5.726,5.062
			s1.446,5.062,5.726,5.062C44.299,25.162,45.625,23.415,45.625,20.1z"/>
		<path class="st0" d="M69.974,42.159c0-9.583,5.304-12.296,17.539-12.296h1.206c-0.181-2.832-1.145-4.038-4.521-4.038
			c-3.857,0-6.69,0.844-8.679,1.809l-3.676-7.354c3.013-1.566,7.232-2.712,13.38-2.712c9.402,0,12.295,3.194,12.295,11.633v12.717
			c0,2.109,0.181,2.652,2.351,2.652v7.896c-0.964,0.12-1.869,0.12-2.712,0.12c-4.339,0-5.967-0.422-6.991-2.832
			c-1.809,2.17-4.521,3.134-9.403,3.134C71.843,52.888,69.974,48.307,69.974,42.159z M88.719,39.447v-3.135h-1.145
			c-6.75,0-8.92,0.904-8.92,4.822c0,3.014,1.085,4.279,4.219,4.279C86.428,45.414,88.719,44.148,88.719,39.447z"/>
		<path class="st0" d="M113.128,45.233l11.211-12.055c6.509-6.991,7.232-8.68,7.232-12.477c0-3.255-1.386-4.762-5.726-4.762
			c-3.194,0-6.509,0.965-8.86,2.11l-3.917-7.655c3.375-1.688,7.534-3.134,14.345-3.134c9.583,0,13.32,4.159,13.32,12.055
			c0,6.991-1.748,9.944-9.945,18.865l-5.847,6.328h16.515v7.956h-28.328V45.233z"/>
		<path class="st0" d="M147.181,30.165c0-14.104,1.869-22.903,16.455-22.903c14.465,0,16.273,8.98,16.273,22.903
			c0,14.586-1.869,22.843-16.273,22.843C149.17,53.008,147.181,44.51,147.181,30.165z M170.567,30.165
			c0-10.186-1.085-14.104-6.931-14.104c-5.967,0-7.052,3.918-7.052,14.104c0,10.246,1.085,14.405,7.052,14.405
			C169.542,44.57,170.567,40.411,170.567,30.165z"/>
		<path class="st0" d="M193.892,48.97l4.761-7.232c2.471,1.567,6.63,3.194,11.874,3.194c5.124,0,6.811-1.627,6.811-4.58
			c0-3.918-2.049-4.521-9.342-6.812c-8.197-2.531-12.115-5.846-12.115-13.139c0-8.74,5.545-13.14,15.43-13.14
			c6.208,0,10.126,1.085,13.682,2.772l-4.098,8.076c-2.11-1.024-5.124-1.988-9.342-1.988c-4.521,0-6.449,1.145-6.449,3.978
			c0,3.074,1.748,3.797,7.112,5.545c10.668,3.436,14.284,5.786,14.284,14.525c0,7.896-4.822,12.838-15.731,12.838
			C203.354,53.008,197.93,51.622,193.892,48.97z"/>
		<path class="st0" d="M231.741,7.804h27.544v8.619h-18.323v8.921h17.54v8.559h-17.54v10.125h18.383v8.438h-27.605V7.804z"/>
		<path class="st0" d="M273.871,16.423h-11.994V7.804h33.572v8.619h-12.055v36.043h-9.523V16.423z"/>
		<path class="st0" d="M299.606,7.804h27.544v8.619h-18.323v8.921h17.54v8.559h-17.54v10.125h18.383v8.438h-27.605V7.804z"/>
		<path class="st0" d="M333.177,7.804h12.055l8.679,28.328l8.8-28.328h12.054v44.662h-9.222V23.957l-8.92,28.509h-6.088
			l-8.98-28.509v28.509h-8.378V7.804z"/>
		<path class="st0" d="M381.695,7.804h16.334c10.366,0,14.284,4.22,14.284,11.452c0,5.425-2.049,8.498-5.243,9.824
			c4.158,1.446,6.147,4.641,6.147,10.909c0,8.8-5.485,12.477-14.827,12.477h-16.696V7.804z M397.728,25.825
			c3.616,0,5.123-1.627,5.123-5.123c0-3.495-1.446-4.762-5.123-4.762h-6.75v9.885H397.728z M398.271,44.57
			c3.436,0,5.424-1.326,5.424-5.304c0-3.979-1.929-5.184-5.484-5.184h-7.233V44.57H398.271z"/>
		<path class="st0" d="M434.011,37.519h-5.906v14.947h-9.282V7.804h17.057c10.729,0,14.707,5.184,14.707,14.225
			c0,6.569-2.109,11.813-7.474,14.164l7.172,16.273H440.4L434.011,37.519z M435.638,29.261c4.099,0,5.727-1.808,5.727-6.569
			c0-4.822-1.628-6.569-5.727-6.569h-7.533v13.139H435.638z"/>
		<path class="st0" d="M454.263,30.165c0-12.175,2.531-22.903,18.503-22.903c15.973,0,18.504,10.729,18.504,22.903
			c0,12.115-2.531,22.843-18.504,22.843C456.794,53.008,454.263,42.28,454.263,30.165z M481.687,30.467
			c0-8.378-0.965-14.104-8.921-14.104s-8.92,5.727-8.92,14.104c0,8.438,0.964,14.164,8.92,14.164S481.687,38.904,481.687,30.467z"/>
	</g>
</g>
</svg>